<svg id="eWseYPixly01" xmlns="http://www.w3.org/2000/svg" xmlns:xlink="http://www.w3.org/1999/xlink" shape-rendering="geometricPrecision" text-rendering="geometricPrecision" project-id="e936c0dcc4e14b719552703f853ab611" export-id="401a97b7beda44568b87d9ae9cf42eb9" cached="false" viewBox="510 90 904.33 900"><g transform="translate(.000001 0)"><path d="M470,545C470,296.47187,671.47186,95,920,95s450,201.47187,450,450-201.47187,450-450,450-450-201.47187-450-450ZM919.99998,990c245.76671,0,445-199.23329,445-445s-199.23329-445-445-445-445,199.23329-445,445s199.23329,445,445,445Z" transform="translate(40-5)" fill="#cdd2dc" stroke-width="0"/><ellipse rx="15" ry="15" transform="translate(1399.324041 623.081795)" fill="#d2dbed" stroke-width="0"/><ellipse rx="15" ry="15" transform="translate(567.793229 753.428117)" fill="#d2dbed" stroke-width="0"/><ellipse rx="15" ry="15" transform="translate(1176.907359 149.28327)" fill="#d2dbed" stroke-width="0"/><ellipse rx="53.537967" ry="28.999629" transform="matrix(.280175 0 0 0.517248 597.793229 269.697128)" fill="#d2dbed" stroke-width="0"/></g></svg>